# xmcd
# 
# Track frame offsets:
#     150
#     20262
#     40500
#     60245
#     84630
#     109365
#     128910
#     134947
#     156750
#     177037
#     198492
#     215930
# 
# Disc length: 3196
# 
# Revision: 1
# Processed by: cddbd v1.5.2PL0 Copyright (c) Steve Scherf et al.
# Submitted via: BonkEnc v1.0.8
# 
DISCID=aa0c7a0c
DTITLE=Chikuzen Sato - THE HITS -CORNERSTONES 3-
DYEAR=2004
DGENRE=J-pop
TTITLE0=はじまりはいつも雨
TTITLE1=木蘭の涙
TTITLE2=GET BACK IN LOVE
TTITLE3=らいおんハート
TTITLE4=君住む街へ
TTITLE5=yA yA （あの時代を忘れない）
TTITLE6=Interlude
TTITLE7=Last Christmas
TTITLE8=トーキョー・シティーセレナーデ (ARTHUR'S THEME)
TTITLE9=Right Here Waiting
TTITLE10=Hard To Say I'm Sorry
TTITLE11=THE CONTINENTAL
EXTD=YEAR: 2004
EXTT0=
EXTT1=
EXTT2=
EXTT3=
EXTT4=
EXTT5=
EXTT6=
EXTT7=
EXTT8=
EXTT9=
EXTT10=
EXTT11=
PLAYORDER=
